<svg width="141" height="22" viewBox="0 0 141 22" fill="none" xmlns="http://www.w3.org/2000/svg">
<path d="M6.03125 7.01563C5.94792 7.01563 5.78646 7.03646 5.54688 7.07813C5.31771 7.10938 5.04688 7.15105 4.73438 7.20313C4.42188 7.25521 4.09375 7.31771 3.75 7.39063C3.40625 7.45313 3.08333 7.51042 2.78125 7.5625C2.47917 7.61459 2.21875 7.66146 2 7.70313C1.77083 7.73438 1.61979 7.75 1.54688 7.75C0.848958 7.75 0.5 7.38542 0.5 6.65625C0.5 6.45834 0.520833 6.26563 0.5625 6.07813C0.59375 5.88021 0.65625 5.70313 0.75 5.54688C0.84375 5.38021 0.96875 5.23959 1.125 5.125C1.28125 5.01042 1.47917 4.9323 1.71875 4.89063C2.9375 4.70313 4.15104 4.50521 5.35938 4.29688C6.56771 4.08855 7.78646 3.8698 9.01562 3.64063C9.28646 3.58855 9.53125 3.54167 9.75 3.5C9.96875 3.44792 10.2135 3.38021 10.4844 3.29688C10.776 3.21355 11.0938 3.13542 11.4375 3.0625C11.7812 2.97917 12.125 2.90625 12.4688 2.84375C12.8229 2.78125 13.1615 2.72917 13.4844 2.6875C13.8177 2.64584 14.1198 2.625 14.3906 2.625C14.724 2.625 14.974 2.73438 15.1406 2.95313C15.3177 3.16146 15.4062 3.45834 15.4062 3.84375C15.4062 4.04167 15.3906 4.23438 15.3594 4.42188C15.3281 4.59896 15.2708 4.76042 15.1875 4.90625C15.1042 5.05209 14.9896 5.17188 14.8438 5.26563C14.6979 5.35938 14.5104 5.41667 14.2812 5.4375C13.6875 5.52084 13.0521 5.625 12.375 5.75C11.6979 5.86459 11.1094 5.9948 10.6094 6.14063C10.401 6.20313 10.2448 6.3073 10.1406 6.45313C10.0365 6.58855 9.96875 6.76042 9.9375 6.96875C9.90625 7.16667 9.88542 7.3698 9.875 7.57813C9.875 7.77605 9.875 7.96875 9.875 8.15625C9.875 8.59375 9.89062 9.03125 9.92188 9.46875C9.96354 9.90625 10 10.3438 10.0312 10.7813C10.125 12.2813 10.2656 13.7656 10.4531 15.2344C10.651 16.7031 10.8646 18.1875 11.0938 19.6875C11.1146 19.7396 11.125 19.7917 11.125 19.8438C11.125 19.8958 11.125 19.9479 11.125 20C11.125 20.5729 10.8021 20.9792 10.1562 21.2188L9.45312 21.4375C9.26562 21.5 9.08333 21.5313 8.90625 21.5313C8.63542 21.5313 8.41667 21.4427 8.25 21.2656C8.08333 21.099 7.97396 20.849 7.92188 20.5156C7.63021 18.724 7.375 16.9427 7.15625 15.1719C6.9375 13.3906 6.79688 11.599 6.73438 9.79688C6.71354 9.50521 6.69792 9.1875 6.6875 8.84375C6.67708 8.5 6.67188 8.14584 6.67188 7.78125C6.67188 7.27084 6.45833 7.01563 6.03125 7.01563Z" fill="#464646"/>
<path d="M22.9844 21.9531C21.849 21.9531 20.8021 21.7604 19.8438 21.375C18.8958 20.9896 18.0781 20.4531 17.3906 19.7656C16.7031 19.0677 16.1667 18.2396 15.7812 17.2813C15.3958 16.3229 15.2031 15.2656 15.2031 14.1094C15.2031 13.4844 15.2552 12.8854 15.3594 12.3125C15.474 11.7292 15.625 11.1875 15.8125 10.6875C15.8958 10.4896 15.9375 10.349 15.9375 10.2656C15.9375 10.1615 15.9115 10.0625 15.8594 9.96875C15.8073 9.875 15.75 9.77605 15.6875 9.67188C15.625 9.56771 15.5677 9.45834 15.5156 9.34375C15.4635 9.22917 15.4375 9.09896 15.4375 8.95313C15.4375 8.51563 15.6875 8.08855 16.1875 7.67188C16.6875 7.2448 17.349 6.8698 18.1719 6.54688C18.9948 6.21355 19.9271 5.94792 20.9688 5.75C22.0104 5.54167 23.0781 5.4375 24.1719 5.4375C25.5156 5.4375 26.724 5.60938 27.7969 5.95313C28.8802 6.29688 29.7969 6.79167 30.5469 7.4375C31.3073 8.07292 31.8906 8.84896 32.2969 9.76563C32.7031 10.6823 32.9062 11.7135 32.9062 12.8594C32.9062 14.1406 32.651 15.3385 32.1406 16.4531C31.6302 17.5573 30.9271 18.5156 30.0312 19.3281C29.1458 20.1406 28.099 20.7813 26.8906 21.25C25.6823 21.7188 24.3802 21.9531 22.9844 21.9531ZM29.7656 13.4688C29.7656 12.6563 29.625 11.9271 29.3438 11.2813C29.0625 10.6354 28.6562 10.0938 28.125 9.65625C27.5938 9.20834 26.9375 8.8698 26.1562 8.64063C25.3854 8.40105 24.5104 8.28125 23.5312 8.28125C21.8125 8.28125 20.5156 8.71875 19.6406 9.59375C18.776 10.4583 18.3438 11.75 18.3438 13.4688C18.3438 14.3021 18.474 15.0677 18.7344 15.7656C18.9948 16.4531 19.3594 17.0469 19.8281 17.5469C20.2969 18.0365 20.8542 18.4219 21.5 18.7031C22.1562 18.974 22.875 19.1094 23.6562 19.1094C24.5521 19.1094 25.375 18.974 26.125 18.7031C26.875 18.4219 27.5156 18.0313 28.0469 17.5313C28.5885 17.0313 29.0104 16.4375 29.3125 15.75C29.6146 15.0521 29.7656 14.2917 29.7656 13.4688Z" fill="#464646"/>
<path d="M33.375 8.0625C33.2396 8.08334 33.125 8.09896 33.0312 8.10938C32.9375 8.1198 32.8594 8.125 32.7969 8.125C32.4427 8.10417 32.1927 8.00521 32.0469 7.82813C31.901 7.64063 31.8281 7.33334 31.8281 6.90625C31.8281 6.0625 32.2344 5.53125 33.0469 5.3125C33.7656 5.14584 34.5365 5.02605 35.3594 4.95313C36.1823 4.8698 37.099 4.82813 38.1094 4.82813C39.4635 4.82813 40.8073 4.95834 42.1406 5.21875C43.4844 5.47917 44.7604 5.83855 45.9688 6.29688C47.1875 6.7448 48.3177 7.28125 49.3594 7.90625C50.401 8.52084 51.3021 9.19271 52.0625 9.92188C52.8333 10.6406 53.4323 11.401 53.8594 12.2031C54.2969 12.9948 54.5156 13.7917 54.5156 14.5938C54.5156 15.4063 54.2396 16.1823 53.6875 16.9219C53.1458 17.651 52.4115 18.2969 51.4844 18.8594C50.5573 19.4219 49.4844 19.8698 48.2656 20.2031C47.0469 20.5365 45.7708 20.7031 44.4375 20.7031C43.375 20.7031 42.2656 20.6042 41.1094 20.4063C39.9531 20.2083 38.6771 19.8906 37.2812 19.4531C36.6354 19.276 36.3125 18.8802 36.3125 18.2656C36.3125 18.1302 36.3438 18.0052 36.4062 17.8906C36.4688 17.776 36.5312 17.6667 36.5938 17.5625C36.6667 17.4583 36.7344 17.3594 36.7969 17.2656C36.8594 17.1615 36.8906 17.0573 36.8906 16.9531C36.8906 16.3594 36.8594 15.724 36.7969 15.0469C36.7448 14.3698 36.6667 13.6927 36.5625 13.0156C36.4688 12.3385 36.3542 11.6927 36.2188 11.0781C36.0938 10.4531 35.9635 9.90105 35.8281 9.42188C35.6927 8.94271 35.5521 8.5625 35.4062 8.28125C35.2708 7.98959 35.1458 7.84375 35.0312 7.84375C34.8542 7.84375 34.6354 7.86459 34.375 7.90625C34.125 7.94792 33.7917 8 33.375 8.0625ZM39.3906 7.8125C39.0885 7.8125 38.9375 7.91667 38.9375 8.125C38.9375 8.17709 38.9531 8.26563 38.9844 8.39063C39.0156 8.51563 39.0625 8.71355 39.125 8.98438C39.2188 9.42188 39.3073 9.89063 39.3906 10.3906C39.474 10.8906 39.5573 11.4531 39.6406 12.0781C39.724 12.6927 39.8021 13.3854 39.875 14.1563C39.9583 14.9167 40.0417 15.776 40.125 16.7344C40.1354 16.8906 40.276 17.0417 40.5469 17.1875C40.8177 17.3229 41.1771 17.4479 41.625 17.5625C42.0729 17.6667 42.5833 17.7552 43.1562 17.8281C43.7396 17.8906 44.3385 17.9219 44.9531 17.9219C45.7656 17.9219 46.5417 17.8281 47.2812 17.6406C48.0312 17.4427 48.6875 17.1823 49.25 16.8594C49.8229 16.5365 50.276 16.1615 50.6094 15.7344C50.9531 15.3073 51.125 14.8646 51.125 14.4063C51.125 13.6458 50.8229 12.9063 50.2188 12.1875C49.625 11.4688 48.8021 10.8177 47.75 10.2344C46.6979 9.64063 45.4583 9.13542 44.0312 8.71875C42.6042 8.29167 41.0573 7.98959 39.3906 7.8125Z" fill="#464646"/>
<path d="M63.1406 21.9531C62.0052 21.9531 60.9583 21.7604 60 21.375C59.0521 20.9896 58.2344 20.4531 57.5469 19.7656C56.8594 19.0677 56.3229 18.2396 55.9375 17.2813C55.5521 16.3229 55.3594 15.2656 55.3594 14.1094C55.3594 13.4844 55.4115 12.8854 55.5156 12.3125C55.6302 11.7292 55.7812 11.1875 55.9688 10.6875C56.0521 10.4896 56.0938 10.349 56.0938 10.2656C56.0938 10.1615 56.0677 10.0625 56.0156 9.96875C55.9635 9.875 55.9062 9.77605 55.8438 9.67188C55.7812 9.56771 55.724 9.45834 55.6719 9.34375C55.6198 9.22917 55.5938 9.09896 55.5938 8.95313C55.5938 8.51563 55.8438 8.08855 56.3438 7.67188C56.8438 7.2448 57.5052 6.8698 58.3281 6.54688C59.151 6.21355 60.0833 5.94792 61.125 5.75C62.1667 5.54167 63.2344 5.4375 64.3281 5.4375C65.6719 5.4375 66.8802 5.60938 67.9531 5.95313C69.0365 6.29688 69.9531 6.79167 70.7031 7.4375C71.4635 8.07292 72.0469 8.84896 72.4531 9.76563C72.8594 10.6823 73.0625 11.7135 73.0625 12.8594C73.0625 14.1406 72.8073 15.3385 72.2969 16.4531C71.7865 17.5573 71.0833 18.5156 70.1875 19.3281C69.3021 20.1406 68.2552 20.7813 67.0469 21.25C65.8385 21.7188 64.5365 21.9531 63.1406 21.9531ZM69.9219 13.4688C69.9219 12.6563 69.7812 11.9271 69.5 11.2813C69.2188 10.6354 68.8125 10.0938 68.2812 9.65625C67.75 9.20834 67.0938 8.8698 66.3125 8.64063C65.5417 8.40105 64.6667 8.28125 63.6875 8.28125C61.9688 8.28125 60.6719 8.71875 59.7969 9.59375C58.9323 10.4583 58.5 11.75 58.5 13.4688C58.5 14.3021 58.6302 15.0677 58.8906 15.7656C59.151 16.4531 59.5156 17.0469 59.9844 17.5469C60.4531 18.0365 61.0104 18.4219 61.6562 18.7031C62.3125 18.974 63.0312 19.1094 63.8125 19.1094C64.7083 19.1094 65.5312 18.974 66.2812 18.7031C67.0312 18.4219 67.6719 18.0313 68.2031 17.5313C68.7448 17.0313 69.1667 16.4375 69.4688 15.75C69.7708 15.0521 69.9219 14.2917 69.9219 13.4688Z" fill="#464646"/>
<path d="M85.9277 21.704L81.8238 20.936C82.5918 17.832 83.3917 15.024 84.2237 12.512C85.0717 10 85.9438 7.848 86.8398 6.056C87.7358 4.264 88.6478 2.888 89.5758 1.928C90.5198 0.952004 91.4638 0.464005 92.4078 0.464005C94.3118 0.464005 96.0638 2.232 97.6637 5.768C99.2638 9.288 100.624 14.392 101.744 21.08L97.4958 21.656C97.3038 20.6 97.0957 19.52 96.8717 18.416C96.6477 17.296 96.4158 16.208 96.1758 15.152C95.7918 15.136 95.3757 15.128 94.9277 15.128C94.1437 15.128 93.3117 15.144 92.4317 15.176C91.5677 15.208 90.7118 15.264 89.8638 15.344C89.0318 15.408 88.2558 15.48 87.5358 15.56C87.2318 16.584 86.9358 17.624 86.6478 18.68C86.3758 19.72 86.1357 20.728 85.9277 21.704ZM90.3438 7.688C89.9917 8.44 89.5197 9.656 88.9277 11.336C89.6157 11.256 90.3437 11.2 91.1117 11.168C91.8797 11.12 92.6318 11.096 93.3678 11.096C93.9918 11.096 94.5917 11.112 95.1677 11.144C94.9437 10.328 94.7278 9.6 94.5198 8.96C94.3278 8.32 94.1518 7.816 93.9918 7.448C93.6558 6.584 93.3598 5.976 93.1038 5.624C92.8478 5.256 92.5838 5.072 92.3118 5.072C92.0238 5.072 91.7358 5.264 91.4478 5.648C91.1598 6.016 90.7917 6.696 90.3438 7.688Z" fill="#FFC400"/>
<path d="M105.276 21.608C105.26 21.096 105.252 20.576 105.252 20.048C105.252 19.536 105.252 19.024 105.252 18.512C105.252 16.16 105.3 13.88 105.396 11.672C105.492 9.448 105.604 7.328 105.732 5.312C105.092 5.472 104.556 5.624 104.124 5.768L103.188 1.928C103.972 1.688 104.796 1.48 105.66 1.304C106.54 1.112 107.396 0.960004 108.228 0.848004C109.076 0.720004 109.852 0.632004 110.556 0.584004C111.276 0.520004 111.868 0.488004 112.332 0.488004C112.828 0.488004 113.436 0.528004 114.156 0.608004C114.892 0.688004 115.644 0.856004 116.412 1.112C117.196 1.352 117.924 1.72 118.596 2.216C119.268 2.712 119.812 3.384 120.228 4.232C120.66 5.064 120.876 6.112 120.876 7.376C120.876 8.688 120.588 9.784 120.012 10.664C119.436 11.528 118.676 12.224 117.732 12.752C116.788 13.264 115.748 13.632 114.612 13.856C113.476 14.08 112.356 14.192 111.252 14.192C110.548 14.192 109.876 14.16 109.236 14.096C109.22 14.864 109.212 15.624 109.212 16.376C109.212 17.4 109.22 18.352 109.236 19.232C109.252 20.096 109.284 20.856 109.332 21.512L105.276 21.608ZM112.212 4.424C111.796 4.424 111.364 4.44 110.916 4.472C110.484 4.504 110.052 4.544 109.62 4.592C109.54 5.44 109.476 6.36 109.428 7.352C109.38 8.344 109.34 9.36 109.308 10.4C109.9 10.448 110.516 10.472 111.156 10.472C114.996 10.472 116.916 9.336 116.916 7.064C116.916 6.168 116.532 5.504 115.764 5.072C114.996 4.64 113.812 4.424 112.212 4.424Z" fill="#FFC400"/>
<path d="M125.01 21.608C124.994 21.096 124.986 20.576 124.986 20.048C124.986 19.536 124.986 19.024 124.986 18.512C124.986 16.16 125.034 13.88 125.13 11.672C125.226 9.448 125.338 7.328 125.466 5.312C124.826 5.472 124.29 5.624 123.858 5.768L122.922 1.928C123.706 1.688 124.53 1.48 125.394 1.304C126.274 1.112 127.13 0.960004 127.962 0.848004C128.81 0.720004 129.586 0.632004 130.29 0.584004C131.01 0.520004 131.602 0.488004 132.066 0.488004C132.562 0.488004 133.17 0.528004 133.89 0.608004C134.626 0.688004 135.378 0.856004 136.146 1.112C136.93 1.352 137.658 1.72 138.33 2.216C139.002 2.712 139.546 3.384 139.962 4.232C140.394 5.064 140.61 6.112 140.61 7.376C140.61 8.688 140.322 9.784 139.746 10.664C139.17 11.528 138.41 12.224 137.466 12.752C136.522 13.264 135.482 13.632 134.346 13.856C133.21 14.08 132.09 14.192 130.986 14.192C130.282 14.192 129.61 14.16 128.97 14.096C128.954 14.864 128.946 15.624 128.946 16.376C128.946 17.4 128.954 18.352 128.97 19.232C128.986 20.096 129.018 20.856 129.066 21.512L125.01 21.608ZM131.946 4.424C131.53 4.424 131.098 4.44 130.65 4.472C130.218 4.504 129.786 4.544 129.354 4.592C129.274 5.44 129.21 6.36 129.162 7.352C129.114 8.344 129.074 9.36 129.042 10.4C129.634 10.448 130.25 10.472 130.89 10.472C134.73 10.472 136.65 9.336 136.65 7.064C136.65 6.168 136.266 5.504 135.498 5.072C134.73 4.64 133.546 4.424 131.946 4.424Z" fill="#FFC400"/>
</svg>
